<?xml version="1.0" encoding="UTF-8" standalone="no"?>
<svg
   width="446.95129pt"
   height="273.75003pt"
   viewBox="0 0 446.9513 273.75003"
   version="1.1"
   id="svg44"
   sodipodi:docname="brand 713.svg"
   inkscape:version="1.2.2 (732a01da63, 2022-12-09)"
   xmlns:inkscape="http://www.inkscape.org/namespaces/inkscape"
   xmlns:sodipodi="http://sodipodi.sourceforge.net/DTD/sodipodi-0.dtd"
   xmlns="http://www.w3.org/2000/svg"
   xmlns:svg="http://www.w3.org/2000/svg">
  <defs
     id="defs48" />
  <sodipodi:namedview
     id="namedview46"
     pagecolor="#acacac"
     bordercolor="#000000"
     borderopacity="0.25"
     inkscape:showpageshadow="2"
     inkscape:pageopacity="0"
     inkscape:pagecheckerboard="0"
     inkscape:deskcolor="#d1d1d1"
     inkscape:document-units="pt"
     showgrid="false"
     inkscape:zoom="2.204263"
     inkscape:cx="414.1974"
     inkscape:cy="82.567281"
     inkscape:window-width="1920"
     inkscape:window-height="1057"
     inkscape:window-x="-8"
     inkscape:window-y="-8"
     inkscape:window-maximized="1"
     inkscape:current-layer="svg44" />
  <g
     id="#fb0202ff"
     transform="matrix(1.0850453,0,0,1.0850453,-43.744884,-106.75468)">
    <path
       style="display:inline;fill:#ffffff;stroke:none;stroke-width:5.22494;stroke-miterlimit:0"
       d="m 343.62,110.14 c 31.63199,-6.87763 62.10894,-7.69971 84.0757,15.69658 25.04096,26.67055 18.67357,53.07721 17.5143,91.52342 -16.04148,22.53859 -48.56926,14.16539 -72.85388,21.24808 -6.14906,25.58813 -26.06407,65.9355 -59.16612,79.62192 -32.79803,13.56073 -77.04,2.74 -77.04,2.74 l -6.22,19.04 -6.65,1.31 c 0,0 -44.95112,-52.83353 -53.83,-32.7 l -9.53,21.61 -10.0047,3.27409 L 127.89,291.99 95.38,200.7 66.45,133.35 78.5,123.66 181.05,171.62 c 0,0 39.5829,-35.64532 51.69,-37.22 13.5583,-1.76342 16.68,5.17 16.68,5.17 l 1.6,16.37 c 24.64068,-1.0619 44.73878,-11.38083 66.78,-17.74 21.85889,-6.30656 25.82,-28.06 25.82,-28.06 z"
       id="path1791"
       transform="translate(-0.40381839,0.18094867)"
       sodipodi:nodetypes="csccscccscccccccsccsc" />
    <path
       fill="#fb0202"
       opacity="1"
       d="M 0,0 H 0.14 C 0.1,0.03 0.03,0.1 0,0.13 Z"
       id="path26" />
    <path
       fill="#fb0202"
       opacity="1"
       d="m 83.056182,136.66095 c 1.05,-0.78 2.24,-1.05 3.55,-0.82 30.479998,14.48 60.279998,33.46 93.709998,40.74 -4.13,20.19 -13.65,39.63 -15.73,60.47 -1.95,3.8 13.13,0.83 8.26,8.72 -3.68,-0.32 -7.37,-0.61 -11.06,-0.35 -6.46,21.99 -2.43,47.27 -5.19,70.32 -7.88,-0.36 -11.41,-12.36 -21.07,-19.7 0.68,-17.21 0.55,-35.77 6.4,-52.64 3.64,-7.37 -11.15,-1.74 -8.72,-8.62 2.72,-4.03 11.81,3.89 12.03,-3.66 4.04,-18.91 10.84,-33.6 14.07,-52.55 -14.27,-7.16 -28.44,-15.18 -43.55,-20.33 6.72,14.91 14.59,29.46 19.44,45.11 -3.84,1.14 -9.32,4.62 -12.46,0.51 -6.71,-1.85 -18.41,4.54 -20.53,-5.63 -1.88,-7.67 5.71,-4 10.16,-4.24 -8.64,-16.52 -16.969998,-33.36 -25.899998,-49.54 -1.24,-2.62 -7.26,-5.14 -3.41,-7.79 z"
       id="path28" />
    <path
       fill="#fb0202"
       opacity="1"
       d="m 235.76618,145.31095 c 6.65,-0.88 2.78,8.24 0.45,12.13 -15.58,50.22 -16.64,103.78 -13.91,155.62 1.04,4.28 -4.04,9.44 -6.88,4.28 -6.52,-8.93 -20.79,-20.63 -14.21,-30.9 4.1,-35.29 9.91,-70.52 9.7,-106.24 -5.94,7.19 -13.14,16.76 -20.86,8.3 -1.44,-7.3 7.69,-8.01 12.35,-10.53 14.95,-6.35 23.41,-20.88 33.36,-32.66 z"
       id="path30"
       sodipodi:nodetypes="ccccccccc" />
    <path
       fill="#fb0202"
       opacity="1"
       d="m 310.17618,152.86095 c 6.45,6.43 -13.73,22.12 -15.65,34.24 16.47,3.67 36.36,3.62 51.62,14.49 15.79,8.3 15.02,28.92 11.82,43.93 -6.68,32.96 -29.47,65.18 -63.28,73.89 -13.43,1.84 -28.67,0.85 -39.98,-7.12 -0.7,-6.56 -5.67,-25.02 5.12,-31.12 5.38,-1.7 11.27,-1.66 16.81,-0.65 0.52,10.96 -6.65,21.63 -4.11,32.72 12.17,0.9 27.91,3.44 36.21,-7.97 21.42,-20.62 29.85,-51.06 28.76,-80.11 0.79,-25.57 -24.74,-31.93 -46.7,-31.4 -9.61,0.73 -18.22,10.02 -27.89,6.72 5.52,-10.53 14.35,-19.38 18.46,-30.54 -4.81,-0.81 -12.19,-2.19 -13.84,4.04 -2.95,6.94 -16.77,2.26 -13.22,-4.14 19.65,-5.92 39.33,-9.03 55.87,-16.98 z"
       id="path32" />
  </g>
  <g
     id="#f7f7f7ff"
     transform="translate(18.328093,89.569147)" />
  <g
     id="#010101ff"
     transform="matrix(1.0850453,0,0,1.0850453,-44.183045,-106.55834)">
    <path
       fill="#010101"
       opacity="1"
       d="m 346.54,98.62 c 13.18,-0.85 28.32,-0.17 42.13,0.1 -7.31,11.26 -29.05,5.4 -45.05,11.42 -0.79,27.09 -1.03,54.19 -1.77,81.28 -8.39,-14.53 -12.15,-32.1 -23.08,-44.85 -23.94,10.16 -50.56,12.37 -75.73,18.67 -5.54,-7.12 7,-18.07 6.38,-25.67 -5.5,-1.94 -11.11,-3.48 -16.68,-5.17 -14.66,15.47 -31.41,29.81 -51.69,37.22 -33.94,-16.51 -68.55,-31.61 -102.55,-47.96 -4.03,3.21 -7.62,7.03 -12.05,9.69 1.78156,2.70625 3.713618,5.36544 5.718818,8.00811 C 82.285584,154.6911 94.26416,167.60379 98.17,184.02 c -9.25,1.64 -3.81,10 -2.79,16.68 11.44,6.32 23.46,11.66 35.03,17.79 0.06,10 -12.36,6.36 -11.13,15.58 -1.25,7.04 10.66,7.22 13.6,12.08 -1.17,15.32 -4.31,30.51 -4.99,45.84 6.09,13.11 15.19,24.73 23.75,36.34 1.54,3.25 5.44,1.41 8.28,1.9 1.55,-17.65 1.73,-35.38 3.28,-53.03 6.82,-0.06 13.9,-1.21 20.5,1.15 3.47,7.69 -0.55,21.21 9.46,25.51 14.07,8.81 20.96,24.34 30.12,37.46 2.21,-0.46 4.42,-0.92 6.65,-1.31 -1.7,-14.45 -3.3,-28.91 -4.8,-43.39 6.12,-2.11 12.26,-4.74 18.85,-4.69 4.99,12.52 9.4,31.86 25.95,32.06 14.62,2.94 29.43,-1.29 43.26,-5.76 33.73,-20.15 46.64,-60.53 55.28,-95.93 21.52,-0.02 43.04,-0.37 64.56,-0.34 4.58,0.48 8.16,-2.98 12.18,-4.6 -0.94,-12.86 -0.67,-25.91 -0.06,-38.44 10.87,-4.71 6.09,7.31 6.38,14.01 -1.31,9.23 2.69,18.43 0.37,27.61 -10.45,6.62 -20.64,13.66 -31.13,20.2 -15.54,0.48 -31.08,-0.24 -46.64,0.03 -5.81,17.82 -13.18,35.08 -22.72,51.24 18.03,1.8 37.67,-3.47 54.57,3.51 -12.13,2.81 -24.43,5.79 -36.99,5.05 -10.52,0.26 -24.23,-3.25 -30.78,7.63 -20.49,19.58 -50.09,28.67 -78.08,28.51 -10.66,0.96 -18.13,-8.15 -23.98,-15.74 0.37,7.69 0.84,15.38 1.94,23.01 -11.03,1.81 -21.91,4.37 -32.87,6.52 -9.95,-15.47 -19.96,-31.66 -35.77,-41.88 -0.41,10 -0.45,20.03 -1.93,29.95 -10.52,0.64 -20.94,2.47 -31.49,2.7 -9.16,-11.72 -17.01,-24.4 -26.29,-36.01 -8.24,-10.45 -22.12,-5.68 -33.77,-6.43 -4.45,0.24 -14.2,2.18 -11.91,-5.36 12.7,-0.89 25.41,-1.58 38.09,-2.71 1.66,-12.19 3.39,-24.38 5.23,-36.54 -4.35,-2.73 -8.71,-5.45 -12.96,-8.31 2.61,-6.83 -1.04,-18.66 7.75,-20.54 C 92.59,222.3 82.95,219.44 73.38,216.34 72.45,207.27 61.89,195.93 68,188.53 63.02,171.84 45.77,158.54 40.72,141.05 c 10.02,-11.31 22.1,-20.2 36.33,-25.48 30.63,14.26 61.33,28.41 91.94,42.73 15.13,-8.93 30.1,-18.18 42.04,-31.29 16.5,-5.68 32.92,2.9 48.68,8.65 -2.82,6.63 -6.81,13.94 -8.69,20.28 21.78,-5.2 44.62,-11.9 66.78,-17.74 -0.27,-6.85 0.65,-13.69 0.05,-20.53 9.55,-6.38 19.04,-12.85 28.69,-19.05 z"
       id="path36"
       sodipodi:nodetypes="cccccccccccscccccccccccccccccccccccccccccccccccccccccccccccccccccc" />
    <path
       fill="#010101"
       opacity="1"
       d="m 407.53,148.3 c 8.77,-0.24 17.53,-0.13 26.32,-0.09 0.41,21.89 0.3,43.8 0.06,65.68 -18.12,0.11 -36.23,0.43 -54.35,0.3 0.32,-10.94 -0.8,-22.54 0.55,-33.07 8.81,0.03 17.62,-0.04 26.43,0.03 0.66,-10.76 -1.31,-22.77 0.99,-32.85 z"
       id="path38"
       sodipodi:nodetypes="ccccccc" />
  </g>
  <g
     id="#fe6602ff"
     transform="matrix(1.0850453,0,0,1.0850453,-44.183045,-106.55834)">
    <path
       fill="#fe6602"
       opacity="1"
       d="m 354.73,117.76 c 17.79,-0.04 35.58,-0.17 53.36,0.04 -0.18,10.16 0.63,20.41 -0.56,30.5 -9.08,0.67 -18.21,0.15 -27.31,0.29 -0.24,10.84 -0.05,21.69 -0.11,32.53 -8.44,0.19 -16.88,0.13 -25.31,0.02 -0.21,-21.13 -0.09,-42.26 -0.07,-63.38 z"
       id="path41"
       sodipodi:nodetypes="ccccccc" />
  </g>
</svg>
